<svg
                width="24"
                height="24"
                viewBox="0 0 24 24"
                fill="none"
                xmlns="http://www.w3.org/2000/svg"
              >
                <path
                  fill-rule="evenodd"
                  clip-rule="evenodd"
                  d="M14.4454 9.556C14.4454 9.97 14.7728 10.306 15.1762 10.306C15.5796 10.306 15.907 9.97 15.907 9.556V7.97461H16.1204C18.0048 7.97461 19.5385 9.54661 19.5385 11.4796V16.9956C19.5385 18.9276 18.0048 20.4996 16.1204 20.4996H6.87959C4.99518 20.4996 3.46154 18.9276 3.46154 16.9956V11.4796C3.46154 9.54661 4.99518 7.97461 6.87959 7.97461H7.07732V9.556C7.07732 9.97 7.40471 10.306 7.80809 10.306C8.21148 10.306 8.53886 9.97 8.53886 9.556V7.97461H14.4454V9.556ZM15.9067 6.47461H16.1204C18.8116 6.47461 21 8.71961 21 11.4796V16.9956C21 19.7546 18.8116 21.9996 16.1204 21.9996H6.87959C4.18938 21.9996 2 19.7546 2 16.9956V11.4796C2 8.71961 4.18938 6.47461 6.87959 6.47461H7.07777C7.09468 5.26464 7.55624 4.1496 8.38199 3.311C9.21799 2.46 10.3405 2.035 11.5038 2C13.9149 2 15.8808 4.00325 15.9067 6.47461ZM8.53917 6.47461C8.55065 5.68051 8.85958 4.93691 9.41091 4.376C9.9702 3.808 10.7107 3.528 11.5009 3.5C13.1091 3.5 14.4193 4.83028 14.445 6.47461H8.53917Z"
                  fill="#211A1E"
                />
              </svg>